<svg xmlns="http://www.w3.org/2000/svg" xmlns:xlink="http://www.w3.org/1999/xlink" width="450" height="78" viewBox="0 0 450 78">
    <defs>
      <clipPath id="clip-path">
        <rect id="area" width="450" height="78" transform="translate(1912 -1217)" fill="#fff"/>
      </clipPath>
    </defs>
    <g id="shinhanlife_logo_w" transform="translate(-1912 1217)" clip-path="url(#clip-path)">
      <path id="shinhanlife_logo_p" d="M-1516.287,1524.155a12.294,12.294,0,0,1-4.195-2.589,12.524,12.524,0,0,1-2.707-3.911,12.768,12.768,0,0,1-.981-5.087,12.364,12.364,0,0,1,4.477-10.024q4.439-3.66,13.713-3.658h7.08v-2.96c0-2.008-.566-3.436-1.771-4.269a8.455,8.455,0,0,0-5.041-1.28,17.012,17.012,0,0,0-6.4,1.249,29.852,29.852,0,0,0-5.518,2.752c-.818.521-1.413.669-1.83.4-.446-.223-.639-.715-.639-1.533v-7.318a31.522,31.522,0,0,1,7.332-2.155,44.72,44.72,0,0,1,7.764-.76c5.473,0,9.682,1.057,12.686,3.138q4.439,3.19,4.432,9.772v27.858h-10.8v-4.269a14.333,14.333,0,0,1-5.474,4.209,17.74,17.74,0,0,1-6.738,1.338A15.993,15.993,0,0,1-1516.287,1524.155Zm4.432-16.242a5.972,5.972,0,0,0-1.7,4.447,5.363,5.363,0,0,0,1.294,3.748,4.7,4.7,0,0,0,3.748,1.428,11.909,11.909,0,0,0,5.325-1.219A13.522,13.522,0,0,0-1498.9,1513v-6.768h-7.17C-1508.776,1506.232-1510.71,1506.782-1511.855,1507.913Zm182.62,15.957a17.8,17.8,0,0,1-6.455-3.747,17.8,17.8,0,0,1-4.388-6.457,24.452,24.452,0,0,1-1.651-9.473,25.351,25.351,0,0,1,1.161-7.719,19.97,19.97,0,0,1,3.569-6.8,18.312,18.312,0,0,1,6.1-4.849,19.728,19.728,0,0,1,8.686-1.8,18.584,18.584,0,0,1,7.928,1.592,16.549,16.549,0,0,1,5.815,4.447,18.78,18.78,0,0,1,3.6,6.647,25.946,25.946,0,0,1,1.249,8.2v2.959h-27.01c.223,3.659,1.249,6.366,3.079,8.076,1.829,1.742,4.417,2.589,7.778,2.589a28.378,28.378,0,0,0,5.757-.581,19.182,19.182,0,0,0,5.889-2.349l1.7,4.759a1.974,1.974,0,0,1-.818,2.008,9.65,9.65,0,0,1-3.155,1.829,35.413,35.413,0,0,1-5.011,1.339,34.452,34.452,0,0,1-6.038.52A25.92,25.92,0,0,1-1329.235,1523.87Zm3.51-32.542a7.346,7.346,0,0,0-2.618,2.008,10.269,10.269,0,0,0-1.634,2.87,10.241,10.241,0,0,0-.655,3.287h15.915a20.2,20.2,0,0,0-.58-3.406,9.842,9.842,0,0,0-1.339-2.841,6.632,6.632,0,0,0-2.26-1.918,6.923,6.923,0,0,0-3.317-.729A7.966,7.966,0,0,0-1325.725,1491.328Zm-389.642,32.63a39.593,39.593,0,0,1-6.07-1.771,16.219,16.219,0,0,1-4.224-2.439c-1.026-.877-1.353-1.786-.968-2.677l2.173-5.666a17.594,17.594,0,0,0,3.54,2.261,33.253,33.253,0,0,0,4.075,1.725,33.607,33.607,0,0,0,4.09,1.1,21.1,21.1,0,0,0,3.808.372,11.009,11.009,0,0,0,6.709-1.8,6.243,6.243,0,0,0,2.408-5.339,7.91,7.91,0,0,0-1.323-4.656,12.288,12.288,0,0,0-4.775-3.63c-1.368-.729-2.662-1.337-3.867-1.918-1.219-.551-2.38-1.13-3.524-1.741-1.115-.609-2.2-1.249-3.243-1.948a30.168,30.168,0,0,1-3.138-2.261,21.791,21.791,0,0,1-4.461-5.518,14.3,14.3,0,0,1-1.771-7.466,12.754,12.754,0,0,1,1.22-5.577,11.933,11.933,0,0,1,3.569-4.387,17.4,17.4,0,0,1,5.622-2.856,26.2,26.2,0,0,1,7.555-1.011,40.712,40.712,0,0,1,16.213,3.078v8.657a1.148,1.148,0,0,1-.714,1.219,1.411,1.411,0,0,1-1.457-.4,19.356,19.356,0,0,0-12.643-4.819,8.853,8.853,0,0,0-5.785,1.621,5.4,5.4,0,0,0-1.993,4.477,7.946,7.946,0,0,0,.7,3.51,7.211,7.211,0,0,0,2.112,2.588,34.835,34.835,0,0,0,5.681,3.808c2.053,1.07,4.046,2.052,6.024,3.02a31.47,31.47,0,0,1,4.865,2.722,16.693,16.693,0,0,1,3.674,3.376,13.948,13.948,0,0,1,2.26,4.3,18.54,18.54,0,0,1,.789,5.666,13.436,13.436,0,0,1-1.592,6.827,12.924,12.924,0,0,1-4.4,4.7,18.563,18.563,0,0,1-6.545,2.707,35.422,35.422,0,0,1-8.016.877A33.017,33.017,0,0,1-1715.368,1523.957Zm283.952-.175v-47.64a8.706,8.706,0,0,0-.4-2.885,6.943,6.943,0,0,0-1.368-2.171,1.349,1.349,0,0,1-.342-1.428,1.068,1.068,0,0,1,1.041-.609h12.479v46.3h21.417v8.434Zm64.409,0v-31.725h-6.945v-7.734h6.945V1474.8a9.5,9.5,0,0,1,.907-4.21,8.708,8.708,0,0,1,2.47-3.257,12.423,12.423,0,0,1,3.821-2.156,14.782,14.782,0,0,1,4.938-.773,30.036,30.036,0,0,1,4.165.253,24.49,24.49,0,0,1,4.416,1.026v6.678c0,.7-.208,1.071-.669,1.131a1.445,1.445,0,0,1-1.175-.239,9.515,9.515,0,0,0-2.022-.893,8.64,8.64,0,0,0-2.439-.3,3.128,3.128,0,0,0-2.425,1,4.041,4.041,0,0,0-.967,2.99v8.269h9v7.734h-9v31.725Zm-24.35-.006v-32.468a8.069,8.069,0,0,0-.373-2.767,6.83,6.83,0,0,0-1.368-2.142c-.432-.535-.551-1-.328-1.4a.974.974,0,0,1,1.027-.669h12.062v39.443Zm-150.345,0v-26.726c0-3.883-2.128-5.8-6.38-5.8a10.54,10.54,0,0,0-4.225.833,21.559,21.559,0,0,0-4.135,2.38v29.315h-11.036v-49.261a8.649,8.649,0,0,0-.342-2.885,6.722,6.722,0,0,0-1.4-2.171,1.165,1.165,0,0,1-.311-1.369,1.139,1.139,0,0,1,1.071-.58h12.018v19.572a17.61,17.61,0,0,1,4.968-2.989,16.375,16.375,0,0,1,6.112-1.071,18.288,18.288,0,0,1,6.009.907,13.52,13.52,0,0,1,4.611,2.544,10.992,10.992,0,0,1,3,3.985,12.387,12.387,0,0,1,1.041,5.117v28.2Zm-92.866,0v-32.468a9.914,9.914,0,0,0-.356-2.767,6.7,6.7,0,0,0-1.4-2.142,1.423,1.423,0,0,1-.356-1.4,1.111,1.111,0,0,1,1.085-.669h12.033v39.443Zm-20.7,0v-26.726c0-3.883-2.112-5.8-6.381-5.8a10.627,10.627,0,0,0-4.209.833,21.074,21.074,0,0,0-4.12,2.38v29.315h-11.065v-49.261a9.6,9.6,0,0,0-.327-2.885,6.512,6.512,0,0,0-1.4-2.171,1.248,1.248,0,0,1-.328-1.369,1.182,1.182,0,0,1,1.116-.58h12v19.572a17.661,17.661,0,0,1,4.968-2.989,16.258,16.258,0,0,1,6.1-1.071,18.3,18.3,0,0,1,6.009.907,14.2,14.2,0,0,1,4.626,2.544,10.974,10.974,0,0,1,2.989,3.985,12.161,12.161,0,0,1,1.04,5.117v28.2Zm202.273,0v-26.46c0-2.231-.491-3.866-1.488-4.878-1.04-.982-2.647-1.488-4.892-1.488a10.543,10.543,0,0,0-4.359.908,14.6,14.6,0,0,0-3.927,2.617v29.3h-11.006v-32.32a8.522,8.522,0,0,0-.417-2.915,6.744,6.744,0,0,0-1.353-2.142c-.462-.521-.58-1-.387-1.4a1.134,1.134,0,0,1,1.085-.67h11.735v3.9a22.748,22.748,0,0,1,4.878-3.659,12.712,12.712,0,0,1,6.411-1.547,18.649,18.649,0,0,1,5.817.877,13.4,13.4,0,0,1,4.684,2.559,11.508,11.508,0,0,1,3.109,4.18,13.773,13.773,0,0,1,1.13,5.726v27.412Zm-134.8,0v-26.46c0-2.231-.49-3.866-1.516-4.878-1.027-.982-2.633-1.488-4.879-1.488a10.593,10.593,0,0,0-4.358.908,14.633,14.633,0,0,0-3.941,2.617v29.3h-10.992v-32.32a9.409,9.409,0,0,0-.4-2.915,6.551,6.551,0,0,0-1.369-2.142c-.46-.521-.581-1-.356-1.4a1.066,1.066,0,0,1,1.056-.67h11.734v3.9a23.031,23.031,0,0,1,4.865-3.659,12.823,12.823,0,0,1,6.439-1.547,18.614,18.614,0,0,1,5.8.877,13.519,13.519,0,0,1,4.684,2.559,11.572,11.572,0,0,1,3.139,4.18,14.266,14.266,0,0,1,1.1,5.726v27.412Zm297.09-28.746v-33.541h-33.358v-11.179h44.475v44.72Zm-100.659-18.4a6.47,6.47,0,0,1-1.859-4.791,6.539,6.539,0,0,1,1.859-4.758,6.442,6.442,0,0,1,4.789-1.889,6.477,6.477,0,0,1,4.8,1.889,6.675,6.675,0,0,1,1.875,4.758,6.6,6.6,0,0,1-1.875,4.791,6.481,6.481,0,0,1-4.8,1.889A6.445,6.445,0,0,1-1391.373,1476.627Zm-243.225,0a6.574,6.574,0,0,1-1.845-4.791,6.646,6.646,0,0,1,1.845-4.758,6.522,6.522,0,0,1,4.8-1.889,6.547,6.547,0,0,1,4.834,1.889,6.665,6.665,0,0,1,1.859,4.758,6.591,6.591,0,0,1-1.859,4.791,6.551,6.551,0,0,1-4.834,1.889A6.526,6.526,0,0,1-1634.6,1476.627Z" transform="translate(3639.785 -2665.308)" fill="#fff"/>
    </g>
</svg>